<?xml version="1.0" encoding="UTF-8" standalone="no"?>
<!-- Uploaded to: SVG Repo, www.svgrepo.com, Generator: SVG Repo Mixer Tools -->

<svg
   width="400"
   height="400"
   viewBox="0 0 38 38"
   version="1.1"
   enable-background="new 0 0 76.00 76.00"
   xml:space="preserve"
   id="svg58"
   sodipodi:docname="pokeball.svg"
   inkscape:version="1.2.2 (b0a8486541, 2022-12-01)"
   xmlns:inkscape="http://www.inkscape.org/namespaces/inkscape"
   xmlns:sodipodi="http://sodipodi.sourceforge.net/DTD/sodipodi-0.dtd"
   xmlns="http://www.w3.org/2000/svg"
   xmlns:svg="http://www.w3.org/2000/svg"><defs
   id="defs62" /><sodipodi:namedview
   id="namedview60"
   pagecolor="#ffffff"
   bordercolor="#000000"
   borderopacity="0.25"
   inkscape:showpageshadow="2"
   inkscape:pageopacity="0.0"
   inkscape:pagecheckerboard="0"
   inkscape:deskcolor="#d1d1d1"
   showgrid="false"
   inkscape:zoom="1.4487332"
   inkscape:cx="139.08703"
   inkscape:cy="147.37013"
   inkscape:window-width="1718"
   inkscape:window-height="1390"
   inkscape:window-x="0"
   inkscape:window-y="25"
   inkscape:window-maximized="0"
   inkscape:current-layer="svg58" />
	<path
   fill="#000000"
   fill-opacity="1"
   stroke-width="0.2"
   stroke-linejoin="round"
   d="m 19.025413,0.00227418 c 10.4934,0 19,8.50660002 19,19.00000082 0,10.4934 -8.5066,19 -19,19 -10.4934003,0 -19.0000003,-8.5066 -19.0000003,-19 0,-10.4934008 8.5066,-19.00000082 19.0000003,-19.00000082 z m 0,3.95830002 c -7.7725,0 -14.1681003,5.8953 -14.9593003,13.4584008 h 7.2010003 c 0.7335,-3.6136 3.9283,-6.3334 7.7583,-6.3334 3.83,0 7.0248,2.7198 7.7583,6.3334 h 7.201 C 33.193513,9.8558742 26.797913,3.9605742 19.025413,3.9605742 Z M 4.0661127,20.585575 c 0.7912,7.5631 7.1868003,13.4584 14.9593003,13.4584 7.7725,0 14.1681,-5.8953 14.9593,-13.4584 l -7.201,10e-5 c -0.7335,3.6135 -3.9283,6.3333 -7.7583,6.3333 -3.83,0 -7.0248,-2.7198 -7.7583,-6.3333 z m 14.9593003,-6.3333 c -2.6234,0 -4.75,2.1267 -4.75,4.75 0,2.6234 2.1266,4.75 4.75,4.75 2.6233,0 4.75,-2.1266 4.75,-4.75 0,-2.6233 -2.1267,-4.75 -4.75,-4.75 z m 0,2.375 c 1.3117,0 2.375,1.0633 2.375,2.375 0,1.3117 -1.0633,2.375 -2.375,2.375 -1.3117,0 -2.375,-1.0633 -2.375,-2.375 0,-1.3117 1.0633,-2.375 2.375,-2.375 z"
   id="path56"
   style="display:inline;fill:#2c3a3a;fill-opacity:1" />
<path
   style="display:inline;fill:#2c3a3a;stroke-width:0.690258;fill-opacity:1"
   d="M 182.25065,398.93961 C 124.49078,393.37476 72.673856,363.76823 38.529323,316.82185 -1.2099574,262.18308 -10.334703,189.57111 14.633031,126.66238 22.512346,106.80964 34.222191,87.297169 47.97922,71.096595 55.631922,62.084607 70.644628,47.876579 79.777324,41.002864 109.54468,18.59849 143.28979,5.3431466 180.83652,1.3060166 c 9.81515,-1.05535218 38.90438,-0.40501753 47.98408,1.0727581 41.54194,6.7612055 75.78335,23.0126393 105.95463,50.2874893 26.37038,23.838842 47.24474,57.201586 57.00377,91.107106 6.1212,21.2667 8.18694,37.6632 7.67112,60.88819 -0.51926,23.37969 -3.4016,39.87474 -10.56652,60.47005 -10.18931,29.28883 -25.41036,53.50085 -47.49501,75.54997 -11.9582,11.93894 -18.4178,17.27217 -31.38805,25.91481 -24.54908,16.35813 -52.38036,26.79953 -83.59585,31.36245 -8.72505,1.27539 -35.03113,1.85971 -44.15404,0.98077 z m 28.22671,-40.70562 c 22.10322,-1.50905 40.45223,-6.38148 59.82503,-15.88608 31.67574,-15.54061 56.3507,-40.21834 72.10373,-72.11182 7.26897,-14.71671 12.25664,-30.11802 14.41819,-44.52166 0.4273,-2.84731 0.93561,-6.18644 1.12958,-7.42027 l 0.35268,-2.24334 H 320.0684 281.83024 l -1.22863,4.65924 c -5.96631,22.62551 -21.65306,42.23955 -42.22632,52.79799 -13.6509,7.0058 -22.89039,9.16274 -38.89067,9.07892 -10.38355,-0.0544 -12.09964,-0.24621 -19.434,-2.17225 -24.36179,-6.39754 -44.43679,-23.09699 -55.06214,-45.80358 -2.24833,-4.80472 -3.68216,-9.04054 -5.99066,-17.6975 -0.18053,-0.67702 -8.41014,-0.86282 -38.21595,-0.86282 H 42.796009 v 2.29518 c 0,3.26772 2.438592,16.25409 4.458478,23.74298 4.065273,15.07233 11.360631,31.20036 20.225624,44.7133 6.568801,10.01286 10.694461,15.12047 19.416764,24.03816 8.730496,8.92608 15.492375,14.54168 25.793015,21.42053 22.55298,15.06107 48.94246,24.05796 76.09573,25.94312 11.08018,0.76926 10.86642,0.76896 21.69174,0.0299 z m 2.4673,-109.47961 c 5.93892,-1.495 14.5098,-5.84178 19.41057,-9.84419 15.66955,-12.79718 22.17734,-35.7683 15.56669,-54.94709 -2.82948,-8.20889 -5.79267,-12.90275 -12.19885,-19.32369 -6.29053,-6.30501 -12.06042,-9.93423 -20.01738,-12.59077 -4.95676,-1.65489 -6.54669,-1.84521 -15.53081,-1.85915 -9.17845,-0.0142 -10.46684,0.14346 -15.53081,1.90115 -21.94829,7.61818 -36.12796,28.46561 -34.5513,50.79849 0.54948,7.78315 1.95969,13.0208 5.4022,20.06427 2.3353,4.77808 4.02559,7.02041 9.10578,12.07969 6.82035,6.79229 11.54753,9.92304 18.78169,12.43883 9.07792,3.15698 20.19908,3.63945 29.56222,1.28246 z m -93.91881,-66.00852 c 3.26352,-10.90939 4.35814,-14.06603 6.2917,-18.14392 9.13379,-19.26321 27.01116,-35.46569 47.08571,-42.67437 12.33585,-4.42975 29.28969,-5.85223 42.43283,-3.56026 28.77814,5.01848 54.06683,26.57566 63.5787,54.19724 0.98051,2.84732 2.11597,6.49706 2.52326,8.11054 l 0.74051,2.93359 h 38.314 38.31401 l -0.37293,-2.24334 c -0.20511,-1.23383 -0.85142,-5.12488 -1.43625,-8.64676 C 346.73486,113.92757 302.25793,64.192114 244.68668,47.688429 176.71683,28.203829 105.19679,54.971815 66.767128,114.27882 54.372587,133.40684 45.170457,158.57193 43.0686,179.08726 l -0.463234,4.52142 h 38.081187 c 29.867117,0 38.136867,-0.1861 38.339297,-0.86282 z"
   id="path418"
   transform="scale(0.095)" /></svg>
